<?xml version="1.0" encoding="UTF-8" standalone="no"?>
<svg
   xmlns:dc="http://purl.org/dc/elements/1.1/"
   xmlns:cc="http://creativecommons.org/ns#"
   xmlns:rdf="http://www.w3.org/1999/02/22-rdf-syntax-ns#"
   xmlns:svg="http://www.w3.org/2000/svg"
   xmlns="http://www.w3.org/2000/svg"
   xmlns:sodipodi="http://sodipodi.sourceforge.net/DTD/sodipodi-0.dtd"
   xmlns:inkscape="http://www.inkscape.org/namespaces/inkscape"
   width="79.371902mm"
   height="77.381325mm"
   viewBox="0 0 79.371902 77.381325"
   version="1.1"
   id="svg8"
   sodipodi:docname="logo.svg"
   inkscape:version="1.0.2 (e86c870879, 2021-01-15)">
  <sodipodi:namedview
     pagecolor="#ffffff"
     bordercolor="#666666"
     borderopacity="1"
     objecttolerance="10"
     gridtolerance="10"
     guidetolerance="10"
     inkscape:pageopacity="0"
     inkscape:pageshadow="2"
     inkscape:window-width="1920"
     inkscape:window-height="1023"
     id="namedview8"
     showgrid="false"
     inkscape:zoom="1.5618663"
     inkscape:cx="211.04405"
     inkscape:cy="95.223779"
     inkscape:window-x="0"
     inkscape:window-y="0"
     inkscape:window-maximized="1"
     inkscape:current-layer="svg8"
     inkscape:document-rotation="0" />
  <defs
     id="defs2" />
  <metadata
     id="metadata5">
    <rdf:RDF>
      <cc:Work
         rdf:about="">
        <dc:format>image/svg+xml</dc:format>
        <dc:type
           rdf:resource="http://purl.org/dc/dcmitype/StillImage" />
        <dc:title />
      </cc:Work>
    </rdf:RDF>
  </metadata>
  <path
     style="fill:#ffffff;fill-opacity:1;stroke:none;stroke-width:0.0881063;stroke-linecap:round;stroke-dasharray:0.0881063, 0.08810630000000000;stop-color:#000000"
     d="m 22.297359,0.4987396 17.38857,0.03853 17.388567,-0.03853 10.811517,13.6191714 10.87201,13.571002 -3.90694,16.94382 L 71.019603,61.59421 55.335637,69.104102 39.685929,76.68357 24.036218,69.104102 8.3527894,61.59421 4.5207764,44.632733 0.61383335,27.688913 11.485837,14.117911 Z"
     id="path849" />
  <path
     id="path1818"
     style="color:#000000;font-style:normal;font-variant:normal;font-weight:normal;font-stretch:normal;font-size:medium;line-height:normal;font-family:sans-serif;font-variant-ligatures:normal;font-variant-position:normal;font-variant-caps:normal;font-variant-numeric:normal;font-variant-alternates:normal;font-variant-east-asian:normal;font-feature-settings:normal;font-variation-settings:normal;text-indent:0;text-align:start;text-decoration:none;text-decoration-line:none;text-decoration-style:solid;text-decoration-color:#000000;letter-spacing:normal;word-spacing:normal;text-transform:none;writing-mode:lr-tb;direction:ltr;text-orientation:mixed;dominant-baseline:auto;baseline-shift:baseline;text-anchor:start;white-space:normal;shape-padding:0;shape-margin:0;inline-size:0;clip-rule:nonzero;display:inline;overflow:visible;visibility:visible;isolation:auto;mix-blend-mode:normal;color-interpolation:sRGB;color-interpolation-filters:linearRGB;solid-color:#000000;solid-opacity:1;vector-effect:none;fill:#db4a32;fill-opacity:1;fill-rule:nonzero;stroke:none;stroke-width:0.32;stroke-linecap:butt;stroke-linejoin:miter;stroke-miterlimit:4;stroke-dasharray:none;stroke-dashoffset:0;stroke-opacity:1;color-rendering:auto;image-rendering:auto;shape-rendering:auto;text-rendering:auto;enable-background:accumulate;stop-color:#000000"
     d="M 83.240234 0 L 41.736328 52.28125 L 0 104.37891 L 15 169.42578 L 29.708984 234.53906 L 89.916016 263.36719 L 149.99414 292.46484 L 210.07227 263.36719 L 270.2793 234.53906 L 284.98828 169.42578 L 299.98828 104.37891 L 258.25195 52.28125 L 216.74805 0 L 149.99414 0.1484375 L 83.240234 0 z M 242.07422 42.900391 L 252.90625 56.544922 L 292.58203 106.07031 L 278.32422 167.9043 L 264.3418 229.80273 L 207.10547 257.20898 L 149.99414 284.86914 L 92.882812 257.20898 L 35.648438 229.80273 L 21.664062 167.9043 L 7.40625 106.07031 L 47.082031 56.544922 L 57.912109 42.902344 L 57.912109 97.382812 L 25.921875 97.382812 A 1.4353195 1.981642 0 0 0 25.205078 101.08008 L 40.521484 113.28906 L 149.27539 199.99414 A 1.4353195 1.981642 0 0 0 150.71289 199.99414 L 259.4668 113.28906 L 274.7832 101.08008 A 1.4353195 1.981642 0 0 0 274.06641 97.382812 L 242.07422 97.382812 L 242.07422 42.900391 z M 93.892578 52.294922 C 98.495736 52.294922 102.2767 53.208713 106.54688 55.353516 C 109.89626 57.035806 115.12187 61.251659 118.1582 64.722656 C 121.19455 68.193642 123.67773 71.666279 123.67773 72.439453 C 123.67773 73.212631 124.52585 74.170564 125.5625 74.568359 C 126.66685 74.992109 128.54947 74.156397 130.10742 72.548828 C 131.56986 71.039791 134.12888 67.955636 135.79492 65.695312 C 137.46095 63.434986 140.52362 59.768568 142.60156 57.546875 C 145.25852 54.706114 147.41732 53.529279 149.87305 53.583984 C 151.79361 53.627109 156.36203 54.3201 160.02734 55.125 C 163.69265 55.929922 168.8734 58.006763 171.53906 59.738281 C 174.20474 61.4698 177.24319 63.911392 178.29102 65.164062 C 179.33882 66.416734 180.90155 69.89565 181.76367 72.894531 C 182.62579 75.893416 183.85895 79.79612 184.50391 81.568359 C 185.14884 83.340587 187.32436 86.260828 189.33984 88.056641 C 191.35534 89.852457 195.39934 92.37917 198.32617 93.673828 C 201.25297 94.968501 203.64844 96.838766 203.64844 97.828125 C 203.64844 98.817492 204.38357 99.908673 205.2832 100.25391 C 206.57484 100.74957 206.66412 101.9983 205.70508 106.18945 C 204.74732 110.37491 203.82571 111.683 201.34375 112.375 C 199.61268 112.85765 196.83208 113.12946 195.16602 112.97852 C 193.49997 112.82756 189.27408 110.9922 185.77539 108.90039 C 182.09912 106.7024 179.41406 104.22994 179.41406 103.04297 C 179.41406 101.6353 178.70479 101.17512 177.15625 101.58008 C 175.90439 101.9075 173.60725 104.96356 172.00586 108.43359 C 169.96882 112.8477 168.40134 114.71712 166.69336 114.76758 C 165.36051 114.80692 162.82261 115.45451 161.05469 116.20703 C 159.28679 116.95961 157.46269 118.18888 157 118.9375 C 156.53734 119.68615 154.71127 120.86791 152.94336 121.56445 C 151.17544 122.26101 148.36527 123.21597 146.69922 123.68555 C 145.03316 124.1551 141.76216 124.19678 139.42969 123.7793 C 137.09724 123.3619 133.8262 122.2597 132.16016 121.33008 C 130.49411 120.40045 128.41977 119.7856 127.55078 119.96289 C 126.68181 120.14019 123.95532 118.52361 121.49219 116.37109 C 118.3583 113.63237 116.83216 111.16082 116.4082 108.13672 C 116.03509 105.4751 115.05925 103.67385 113.86719 103.44727 C 112.54171 103.19536 111.2681 104.81346 109.82812 108.58398 C 108.67167 111.61214 107.01916 114.08984 106.15625 114.08984 C 105.29334 114.08984 103.9097 114.90858 103.08008 115.9082 C 102.123 117.06144 99.446838 117.72461 95.759766 117.72461 C 92.563786 117.72461 89.087336 117.39473 88.033203 116.99023 C 86.979066 116.58571 86.117187 114.95022 86.117188 113.35547 C 86.117188 111.45288 86.84494 110.41026 88.236328 110.32227 C 89.402554 110.24887 91.494621 110.27612 92.884766 110.38281 C 94.27491 110.48992 96.113408 109.73221 96.970703 108.69922 C 97.828028 107.66623 99.27393 106.82031 100.18359 106.82031 C 101.09327 106.82031 103.20056 104.6624 104.86523 102.02539 C 106.52992 99.38837 108.98946 96.64235 110.33203 95.923828 C 111.67459 95.20531 112.77344 93.464254 112.77344 92.054688 C 112.77344 90.64512 111.36769 86.621307 109.65039 83.111328 C 107.76043 79.24833 104.77216 75.523725 102.07812 73.675781 C 99.630315 71.996711 96.167218 70.26749 94.382812 69.832031 C 92.598366 69.396543 90.896196 68.407641 90.599609 67.634766 C 90.30303 66.86189 90.127229 65.944546 90.208984 65.595703 C 90.290736 65.246777 89.15326 63.669429 87.681641 62.089844 C 85.438601 59.682213 85.234679 58.803487 86.423828 56.664062 C 87.20401 55.260415 87.72751 53.702937 87.585938 53.203125 C 87.444319 52.703294 90.282033 52.294922 93.892578 52.294922 z M 206.56055 55.564453 C 207.57506 55.588777 208.55342 55.940428 209.88477 56.628906 C 211.8724 57.656753 213.44915 59.722984 213.93555 61.9375 C 214.37361 63.932078 214.39885 66.104782 213.99023 66.765625 C 213.58178 67.42646 211.63946 67.647 209.67383 67.253906 C 207.37201 66.793518 205.03226 67.237436 203.09961 68.503906 C 201.44923 69.585282 199.35672 70.470703 198.45117 70.470703 C 197.54563 70.470703 196.30093 72.473414 195.68359 74.921875 C 195.06657 77.368882 193.93013 79.577478 193.1582 79.832031 L 193.15625 79.832031 C 192.38473 80.083411 191.50182 79.852925 191.19531 79.318359 C 190.88857 78.783409 190.26718 76.293833 189.81445 73.785156 C 189.21296 70.452078 189.56738 68.248953 191.12891 65.605469 C 192.30421 63.615827 193.89948 61.988281 194.67383 61.988281 C 195.44816 61.988281 196.82977 61.088072 197.74414 59.986328 C 198.6585 58.884592 201.03114 57.298128 203.01758 56.462891 C 204.49483 55.841754 205.54603 55.54013 206.56055 55.564453 z M 158.22266 66.007812 C 157.54451 66.014293 156.7753 66.125046 155.82812 66.302734 C 153.47349 66.744501 151.54687 67.568207 151.54688 68.134766 C 151.54688 68.701358 149.42393 69.737086 146.83008 70.435547 C 143.82043 71.245961 140.43948 73.559116 137.48438 76.830078 C 134.8381 79.759189 131.97223 81.806539 130.79688 81.607422 C 129.66566 81.415724 128.40709 81.798305 128 82.457031 C 127.5929 83.11575 128.41432 88.1851 129.82617 93.722656 C 131.23797 99.260223 133.25869 105.15427 134.31641 106.82031 C 135.37414 108.48636 136.94409 110.5561 137.80469 111.41992 C 138.66531 112.28376 140.81884 113.74331 142.58984 114.66211 C 144.75021 115.78292 146.727 115.98271 148.59766 115.27148 C 150.13114 114.68846 152.37531 113.69583 153.58594 113.06445 C 154.79657 112.43307 158.1413 110.94191 161.01953 109.75195 C 164.17182 108.44867 166.94378 106.25619 167.98828 104.23633 C 168.94197 102.39209 169.7207 100.03663 169.7207 99.003906 C 169.7207 97.971188 170.74953 96.100088 172.00586 94.84375 C 174.24373 92.605888 174.24266 92.427018 171.92969 86.058594 C 170.63115 82.483395 169.25397 78.261674 168.86914 76.677734 C 168.48429 75.093784 166.35508 71.93075 164.13867 69.648438 C 161.46395 66.894216 160.25708 65.988372 158.22266 66.007812 z M 206.85156 71.683594 C 208.27971 71.683065 209.77909 72.545469 210.18359 73.599609 C 210.58812 74.653738 210.91797 78.197018 210.91797 81.474609 C 210.91797 84.861058 210.36392 87.433594 209.63477 87.433594 C 208.92904 87.433594 208.68971 87.978106 209.10156 88.644531 C 209.51344 89.310972 209.13567 89.839544 208.26367 89.818359 C 207.39131 89.797194 205.80798 89.116503 204.74414 88.304688 C 203.68029 87.49286 202.97772 85.737132 203.18359 84.404297 C 203.3895 83.071458 203.71466 79.663778 203.90625 76.832031 C 204.20026 72.485363 204.65944 71.684421 206.85156 71.683594 z M 159.49219 76.529297 C 159.87431 76.529297 161.27075 77.10835 162.59375 77.816406 C 164.67758 78.931635 164.97568 80.268113 164.83203 87.8125 C 164.74083 92.602378 164.12572 98.293126 163.46484 100.45898 C 162.80393 102.62484 161.51994 104.39648 160.61133 104.39648 C 159.70272 104.39648 158.6187 103.84617 158.20312 103.17383 C 157.78756 102.50148 157.83678 100.73111 158.31055 99.238281 C 158.78433 97.745443 159.08699 92.023995 158.98438 86.525391 C 158.88172 81.026802 159.11004 76.529297 159.49219 76.529297 z M 94.080078 78.130859 C 94.852406 78.066476 95.814784 78.437825 96.505859 79.128906 C 97.457888 80.080965 98.213355 83.41266 98.255859 86.845703 C 98.296754 90.168255 98.27558 93.85195 98.208984 95.033203 C 98.141633 96.214472 97.294464 99.077104 96.326172 101.39453 C 95.357883 103.71196 94.010415 105.60937 93.332031 105.60938 C 92.653633 105.60938 91.889435 104.92676 91.632812 104.09375 C 91.376184 103.26072 90.831231 101.06098 90.423828 99.205078 C 90.016425 97.349179 90.465738 93.527308 91.421875 90.710938 C 92.378061 87.894543 92.888691 84.15929 92.554688 82.412109 C 92.214492 80.63267 92.581096 78.844933 93.388672 78.345703 C 93.586952 78.22315 93.822636 78.15232 94.080078 78.130859 z M 146.85742 80.164062 C 148.3502 80.164062 149.17963 81.094514 149.28906 82.890625 C 149.38045 84.390058 149.35707 86.706228 149.23828 88.039062 C 149.11885 89.371902 149.05321 91.962274 149.0918 93.794922 C 149.13042 95.627573 148.63869 97.126953 148 97.126953 C 147.36127 97.126953 147.0485 98.214781 147.30469 99.544922 C 147.588 101.01624 146.88096 102.43958 145.49805 103.17969 C 144.24783 103.84877 142.65456 104.39648 141.95703 104.39648 L 141.95508 104.39648 C 141.25753 104.39648 140.34326 103.02274 139.92188 101.34375 C 139.50047 99.664763 139.71053 96.802128 140.38867 94.982422 C 141.06684 93.162708 142.29069 89.085408 143.10742 85.919922 C 144.213 81.634988 145.17047 80.164063 146.85742 80.164062 z "
     transform="scale(0.26458334)" />
  <g
     id="layer1"
     transform="translate(-30.986738,-69.887723)" />
  <path
     style="fill:#000000;stroke-width:0.0846667"
     d="m 43.213506,65.71319 c -0.225026,0.12043 -0.326528,0.114604 -0.326528,-0.01879 0,-0.106398 -0.07956,-0.1443 -0.176813,-0.0842 -0.09725,0.0601 -0.176814,0.02026 -0.176814,-0.0884 0,-0.108715 -0.08305,-0.146345 -0.18454,-0.08361 -0.101511,0.06273 -0.280521,0.03849 -0.397815,-0.05388 -0.117298,-0.09236 -0.333074,-0.165516 -0.479508,-0.162551 -0.146429,0.0029 -0.594012,-0.201539 -0.994616,-0.454432 -0.400601,-0.252889 -0.888963,-0.663966 -1.08525,-0.913502 -0.196276,-0.249535 -0.424993,-0.456601 -0.508242,-0.460145 -0.08324,-0.0035 -0.376038,-0.301905 -0.650646,-0.663025 -0.346061,-0.455083 -0.477542,-0.805795 -0.428437,-1.1428 0.03897,-0.267419 0.005,-0.486217 -0.07534,-0.486217 -0.0804,0 -0.146179,-0.08426 -0.146179,-0.187234 0,-0.102973 0.07956,-0.138076 0.176813,-0.07798 0.105834,0.0654 0.176814,-0.156056 0.176814,-0.551635 0,-0.363498 0.09174,-0.945024 0.203857,-1.292282 0.112119,-0.347256 0.318005,-0.959496 0.457531,-1.360531 0.143777,-0.413239 0.629796,-1.099612 1.121783,-1.584203 0.788528,-0.77667 0.954923,-0.860591 1.815241,-0.915515 0.728229,-0.04648 1.096114,0.02744 1.591677,0.31982 0.354496,0.209157 0.644537,0.492643 0.644537,0.629968 0,0.137324 -0.576831,0.865426 -1.281849,1.617997 -0.705016,0.752574 -1.410927,1.607003 -1.56869,1.898734 -0.157768,0.291731 -0.390353,0.943247 -0.516864,1.447812 -0.188362,0.751275 -0.188529,0.967379 -8.86e-4,1.193445 0.125964,0.151817 0.300596,0.27605 0.388015,0.27605 0.08742,0 0.46868,0.204963 0.847239,0.45549 0.648467,0.429133 0.771199,0.448255 2.121293,0.330485 1.35109,-0.117861 1.453022,-0.101928 1.783213,0.278792 0.192621,0.222088 0.350208,0.55436 0.350208,0.738391 0,0.184018 -0.198448,0.533053 -0.441019,0.775615 -0.242562,0.242561 -0.679998,0.45774 -0.972086,0.47818 -0.292086,0.02047 -0.531224,0.112746 -0.531416,0.205131 -1.77e-4,0.09238 -0.09211,0.07622 -0.204253,-0.03594 -0.14029,-0.140268 -0.305762,-0.149373 -0.53042,-0.02913 z M 57.07571,65.478128 c -0.370413,0.245533 -0.397815,0.237854 -0.397815,-0.111471 0,-0.206342 -0.07956,-0.37518 -0.176814,-0.37518 -0.09725,0 -0.176813,-0.11189 -0.176813,-0.248659 0,-0.158645 -0.123584,-0.216338 -0.341384,-0.159376 -0.187756,0.04909 -0.38417,0.200766 -0.436466,0.337061 -0.05229,0.13628 -0.216925,0.247785 -0.365844,0.247785 -0.148914,0 -0.270758,0.09055 -0.270758,0.201225 0,0.142378 -0.344748,0.165892 -1.179032,0.08044 -0.648469,-0.06645 -1.265082,-0.174579 -1.370252,-0.240311 -0.105165,-0.06574 -0.350346,-0.142963 -0.544833,-0.171635 -0.19448,-0.02867 -0.552522,-0.210687 -0.795631,-0.404497 -0.24311,-0.193812 -0.610585,-0.425301 -0.816613,-0.514419 -0.206028,-0.08913 -0.544171,-0.377613 -0.751427,-0.641098 -0.207261,-0.263485 -0.376832,-0.575456 -0.376832,-0.693267 0,-0.11782 -0.113873,-0.445223 -0.253067,-0.727584 -0.168899,-0.342624 -0.229828,-0.895639 -0.183203,-1.662624 0.03842,-0.632083 0.10339,-1.348149 0.144361,-1.591259 0.04097,-0.24311 0.288323,-0.914853 0.549666,-1.492766 0.261342,-0.577912 0.608617,-1.157101 0.771723,-1.287091 0.163114,-0.129995 0.694372,-0.435759 1.180589,-0.679487 0.735444,-0.368654 1.035223,-0.42439 1.783505,-0.331589 0.64771,0.08033 1.051737,0.253856 1.443471,0.619962 0.365904,0.341969 0.514518,0.621149 0.453945,0.85278 -0.04953,0.189405 -0.341058,0.438471 -0.647841,0.553493 -0.306783,0.115021 -0.736803,0.294105 -0.955601,0.397965 -0.218798,0.10387 -0.397815,0.254958 -0.397815,0.33577 0,0.08082 -0.11782,0.146931 -0.261841,0.146931 -0.144007,0 -0.311762,0.198907 -0.372781,0.442015 -0.06102,0.243109 -0.175707,0.442017 -0.254867,0.442017 -0.07917,0 -0.239628,0.289981 -0.356601,0.644401 -0.126152,0.382235 -0.174871,1.11525 -0.119783,1.801728 0.06678,0.831924 0.18193,1.22243 0.409562,1.388873 0.174161,0.127342 0.505592,0.231549 0.736508,0.231549 0.230917,0 0.573743,-0.08236 0.761836,-0.183037 0.190116,-0.10174 0.341991,-0.368717 0.341991,-0.601141 0,-0.242105 -0.260503,-0.678618 -0.618824,-1.036937 -0.363956,-0.363958 -0.616507,-0.789948 -0.613201,-1.034319 0.0031,-0.228523 0.111471,-0.554936 0.240833,-0.725363 0.170946,-0.225207 0.378875,-0.281133 0.761044,-0.204692 0.289208,0.05785 0.812113,0.02612 1.162014,-0.07048 0.52885,-0.146033 0.683634,-0.123229 0.917443,0.135132 0.173723,0.191974 0.442416,0.279982 0.702798,0.230206 0.361372,-0.06908 0.476832,0.04179 0.808975,0.776798 0.213093,0.471555 0.469898,1.478745 0.570676,2.238198 0.130078,0.980314 0.127572,1.493142 -0.0088,1.768064 -0.105541,0.212985 -0.215904,0.536865 -0.245227,0.719732 -0.02932,0.18287 -0.232333,0.451155 -0.451131,0.59619 z M 28.973892,64.98588 c -0.273158,-0.0031 -0.706624,-0.190575 -0.963255,-0.416661 -0.25663,-0.226091 -0.521332,-0.66026 -0.588223,-0.964822 -0.06689,-0.304561 -0.195065,-0.599136 -0.284827,-0.654613 -0.08975,-0.05546 -0.163198,-0.255295 -0.163198,-0.444045 0,-0.188758 -0.07956,-0.343177 -0.176814,-0.343177 -0.09725,0 -0.156912,-0.09946 -0.132605,-0.221008 0.0284,-0.141981 -0.217681,-0.240117 -0.688153,-0.274446 -0.5757,-0.042 -0.830986,0.03796 -1.193444,0.37389 -0.253602,0.235028 -0.461092,0.51197 -0.461092,0.615427 0,0.103452 -0.09944,0.293242 -0.221007,0.421742 -0.121558,0.128491 -0.329084,0.443427 -0.461177,0.699832 -0.169589,0.329184 -0.427009,0.496515 -0.875922,0.569362 -0.452037,0.07336 -0.727512,0.02005 -0.953277,-0.184185 -0.174642,-0.15804 -0.316508,-0.493821 -0.315264,-0.746169 0.0012,-0.252348 0.191599,-1.055538 0.423021,-1.784865 0.231419,-0.729325 0.459744,-1.673606 0.507384,-2.098401 0.04763,-0.424795 0.184039,-0.832555 0.30308,-0.906133 0.133399,-0.08244 0.149583,-0.175122 0.04218,-0.241491 -0.09598,-0.05933 -0.13509,-0.486274 -0.08706,-0.950337 0.04797,-0.463443 0.224774,-0.987069 0.392899,-1.163613 0.168126,-0.176542 0.457382,-0.343186 0.642802,-0.370319 0.185417,-0.02713 0.364239,-0.188278 0.39738,-0.35809 0.03314,-0.169818 0.218143,-0.466648 0.411111,-0.659616 0.277835,-0.277836 0.489548,-0.32742 1.017314,-0.238255 0.366553,0.06194 0.918848,0.343119 1.22732,0.624864 0.308473,0.281747 0.60925,0.754219 0.668394,1.049939 0.05914,0.295721 0.171781,0.537676 0.250327,0.537676 0.07854,0 0.200369,0.179027 0.270731,0.397815 0.07037,0.218798 0.148392,0.556941 0.173389,0.751427 0.025,0.194481 0.179612,0.671865 0.343595,1.06084 0.163991,0.388975 0.417375,0.841448 0.563084,1.005498 0.145699,0.164055 0.217802,0.37451 0.160212,0.467691 -0.05759,0.09318 0.01817,0.216599 0.168502,0.274262 0.150272,0.05766 0.418984,0.443922 0.597149,0.858357 0.178171,0.414434 0.377546,1.184724 0.443069,1.711759 0.112621,0.905802 0.101657,0.944669 -0.200348,0.710272 -0.303974,-0.235929 -0.304897,-0.230752 -0.019,0.106627 0.165265,0.195044 0.24482,0.43235 0.176813,0.527373 -0.06802,0.09502 -0.231488,0.195461 -0.363279,0.223175 -0.13179,0.02773 -0.36586,-0.05183 -0.520158,-0.176814 -0.214114,-0.173409 -0.249101,-0.174871 -0.147766,-0.0063 0.09387,0.156265 -0.01274,0.219373 -0.363876,0.215422 z m -3.5613,-4.944995 c 0.08105,0 0.147349,-0.07104 0.147349,-0.157894 0,-0.08683 -0.119345,-0.20369 -0.26521,-0.259661 -0.145866,-0.05597 -0.26521,-0.03796 -0.26521,0.04001 0,0.07798 0.05304,0.194835 0.117882,0.259659 0.06482,0.06482 0.184165,0.117883 0.26521,0.117883 z m 8.711793,3.202459 c -0.221267,0.0658 -0.513321,-0.01232 -0.74391,-0.199053 -0.208806,-0.169066 -0.336785,-0.350251 -0.284418,-0.402616 0.05235,-0.05237 0.0025,-0.268378 -0.11074,-0.480028 -0.128053,-0.239271 -0.200683,-1.231378 -0.192017,-2.623038 0.0077,-1.231023 -0.04534,-2.318622 -0.117778,-2.416887 -0.07244,-0.09827 -0.569309,-0.367247 -1.10415,-0.597738 -0.534841,-0.230492 -1.161089,-0.506837 -1.391663,-0.6141 -0.230574,-0.107275 -0.4587,-0.297894 -0.506946,-0.423618 -0.04824,-0.125734 0.128847,-0.429299 0.393541,-0.674608 0.476484,-0.441591 0.507808,-0.445488 3.159044,-0.393096 2.566236,0.05072 2.712772,0.07349 3.517619,0.54659 0.547832,0.322027 0.83983,0.614025 0.83983,0.83983 0,0.190387 -0.09422,0.346161 -0.209389,0.346161 -0.115167,0 -0.556909,0.168231 -0.981662,0.373852 -0.424752,0.205611 -0.817377,0.328754 -0.872501,0.27363 -0.05513,-0.05513 -0.195713,-0.0046 -0.312428,0.11237 -0.137324,0.137554 -0.196422,0.699287 -0.167479,1.591691 0.0246,0.758505 -0.0142,1.931424 -0.08641,2.606479 -0.08539,0.799155 -0.06588,1.293401 0.05592,1.416613 0.131958,0.133482 0.08288,0.251106 -0.166539,0.399231 -0.19448,0.115502 -0.517539,0.258753 -0.717894,0.318344 z"
     id="path1810-3"
     sodipodi:nodetypes="ssssssssssssssssssssssssscssssssscsssssssssssssssssssssssssssssssssssssssssssssssssssssssssssssssssssssssssssssssssssssssssssssssssssssssssssssssssssssssssss" />
</svg>
